<svg id="Layer_1" data-name="Layer 1" xmlns="http://www.w3.org/2000/svg" viewBox="0 0 52.5 73"><defs><style>.cls-2{fill:#a0d200}</style></defs><path d="M40.05 20.33a2.65 2.65 0 00-1.5.06l-2 .68V2.26A1.76 1.76 0 0034.78.5H8.19a1.76 1.76 0 00-1.77 1.76v18.81l-2-.68a2.68 2.68 0 00-1.51-.06c-.73.18-2.41.91-2.41 3.82v15.72a3.16 3.16 0 003.14 2.89h6.73a7.91 7.91 0 005.44 2.41 5.67 5.67 0 003.43 5.09v4.38a.15.15 0 01-.14.15c-9.37.39-15.39 3.37-17.1 4.35A2.92 2.92 0 00.72 61.8v3.45A2.23 2.23 0 003 67.39a2.25 2.25 0 002.17-2.11A2.22 2.22 0 003.47 63a.13.13 0 01-.11-.14v-1.25a.87.87 0 01.47-.77c2.55-1.41 9-2.12 14-2.37h1.46a.16.16 0 01.14.14c.25 4 .65 7.33.78 9.43H20c-.86 0-1.6 1-1.6 2.23s.74 2.23 1.6 2.23h3c.86 0 1.59-1 1.59-2.23S23.85 68 23 68h-.2s.53-5.45.79-9.42a.13.13 0 01.13-.14h1.46c4.91.25 11.41 1 14 2.37a.87.87 0 01.47.77v1.24a.14.14 0 01-.11.14 2.24 2.24 0 00-1.71 2.29A2.26 2.26 0 0040 67.39a2.23 2.23 0 002.29-2.14V61.8A2.92 2.92 0 0041 59.14c-1.73-1-7.74-4-17.13-4.34a.15.15 0 01-.15-.15v-4.38a5.66 5.66 0 003.44-5.09 7.93 7.93 0 005.44-2.41h6.7a3.15 3.15 0 003.14-2.89 1.73 1.73 0 000-.32V24.15c.03-2.91-1.66-3.64-2.39-3.82zM6.42 36.59L3.32 39a.12.12 0 01-.18-.09V24.15c0-.56.09-1.37.41-1.26l2.72.92a.23.23 0 01.15.21zM39.65 39l-3.1-2.36V24a.23.23 0 01.15-.21l2.72-.92c.35-.1.41.7.41 1.26v14.73a.12.12 0 01-.18.14z" fill="#b2e522" fill-rule="evenodd"/><path class="cls-2" d="M44.83 62.84a3.45 3.45 0 01.28-1.36 3.88 3.88 0 01.75-1.11 3.51 3.51 0 011.14-.75 3.31 3.31 0 011.36-.28 3.25 3.25 0 011.36.28 3.3 3.3 0 011.11.75 3.71 3.71 0 01.76 1.11 3.56 3.56 0 010 2.72 3.71 3.71 0 01-.76 1.11 3.3 3.3 0 01-1.11.75 3.25 3.25 0 01-1.36.28 3.31 3.31 0 01-1.36-.28 3.51 3.51 0 01-1.11-.75 3.88 3.88 0 01-.75-1.11 3.45 3.45 0 01-.31-1.36zm.62 0a2.8 2.8 0 00.23 1.16 2.93 2.93 0 00.62.92 2.9 2.9 0 002 .84 2.8 2.8 0 001.12-.23A2.84 2.84 0 0051 64a2.8 2.8 0 00.22-1.12 2.83 2.83 0 00-.22-1.16 2.84 2.84 0 00-1.54-1.53 2.8 2.8 0 00-1.13-.19 2.9 2.9 0 00-2 .84 2.93 2.93 0 00-.62.92 2.84 2.84 0 00-.26 1.08z"/><path class="cls-2" d="M47 60.84h1.25c1.15 0 1.59.42 1.59 1.14a1 1 0 01-.9 1.1l1 1.68h-.78l-.91-1.66h-.52v1.64H47zm1.31 1.66c.52 0 .86-.12.86-.55s-.25-.53-.85-.53h-.6v1.06z"/></svg>